<mxfile host="Electron" agent="Mozilla/5.0 (Macintosh; Intel Mac OS X 10_15_7) AppleWebKit/537.36 (KHTML, like Gecko) draw.io/24.7.17 Chrome/128.0.6613.36 Electron/32.0.1 Safari/537.36" version="24.7.17">
  <diagram id="VDv65uDaTZI5-oXiUYlj" name="Page-1">
    <mxGraphModel dx="1354" dy="787" grid="1" gridSize="10" guides="1" tooltips="1" connect="1" arrows="1" fold="1" page="1" pageScale="1" pageWidth="850" pageHeight="1100" math="0" shadow="0">
      <root>
        <mxCell id="0" />
        <mxCell id="1" parent="0" />
        <mxCell id="nnM_vdUUp27lyh8uVQgL-1" value="reb" style="rounded=0;whiteSpace=wrap;html=1;hachureGap=4;pointerEvents=0;fontSize=24;fillColor=#dae8fc;strokeColor=#6c8ebf;" parent="1" vertex="1">
          <mxGeometry x="70" y="210" width="120" height="60" as="geometry" />
        </mxCell>
        <mxCell id="nnM_vdUUp27lyh8uVQgL-2" value="re_nokanji" style="rounded=0;whiteSpace=wrap;html=1;hachureGap=4;pointerEvents=0;fontSize=24;fillColor=#dae8fc;strokeColor=#6c8ebf;" parent="1" vertex="1">
          <mxGeometry x="70" y="270" width="120" height="60" as="geometry" />
        </mxCell>
        <mxCell id="nnM_vdUUp27lyh8uVQgL-3" value="re_restr" style="rounded=0;whiteSpace=wrap;html=1;hachureGap=4;pointerEvents=0;fontSize=24;fillColor=#dae8fc;strokeColor=#6c8ebf;" parent="1" vertex="1">
          <mxGeometry x="70" y="330" width="120" height="60" as="geometry" />
        </mxCell>
        <mxCell id="nnM_vdUUp27lyh8uVQgL-4" value="re_inf" style="rounded=0;whiteSpace=wrap;html=1;hachureGap=4;pointerEvents=0;fontSize=24;fillColor=#dae8fc;strokeColor=#6c8ebf;" parent="1" vertex="1">
          <mxGeometry x="70" y="390" width="120" height="60" as="geometry" />
        </mxCell>
        <mxCell id="nnM_vdUUp27lyh8uVQgL-5" value="keb" style="rounded=0;whiteSpace=wrap;html=1;hachureGap=4;pointerEvents=0;fontSize=24;fillColor=#fff2cc;strokeColor=#d6b656;" parent="1" vertex="1">
          <mxGeometry x="70" y="530" width="120" height="60" as="geometry" />
        </mxCell>
        <mxCell id="nnM_vdUUp27lyh8uVQgL-6" value="ke_pri" style="rounded=0;whiteSpace=wrap;html=1;hachureGap=4;pointerEvents=0;fontSize=24;fillColor=#fff2cc;strokeColor=#d6b656;" parent="1" vertex="1">
          <mxGeometry x="70" y="590" width="120" height="60" as="geometry" />
        </mxCell>
        <mxCell id="nnM_vdUUp27lyh8uVQgL-7" value="ke_inf" style="rounded=0;whiteSpace=wrap;html=1;hachureGap=4;pointerEvents=0;fontSize=24;fillColor=#fff2cc;strokeColor=#d6b656;" parent="1" vertex="1">
          <mxGeometry x="70" y="650" width="120" height="60" as="geometry" />
        </mxCell>
        <mxCell id="nnM_vdUUp27lyh8uVQgL-8" value="re_pri" style="rounded=0;whiteSpace=wrap;html=1;hachureGap=4;pointerEvents=0;fontSize=24;fillColor=#dae8fc;strokeColor=#6c8ebf;" parent="1" vertex="1">
          <mxGeometry x="70" y="450" width="120" height="60" as="geometry" />
        </mxCell>
        <mxCell id="nnM_vdUUp27lyh8uVQgL-9" value="pos" style="rounded=0;whiteSpace=wrap;html=1;hachureGap=4;pointerEvents=0;fontSize=24;fillColor=#d5e8d4;strokeColor=#82b366;" parent="1" vertex="1">
          <mxGeometry x="70" y="720" width="120" height="60" as="geometry" />
        </mxCell>
        <mxCell id="nnM_vdUUp27lyh8uVQgL-10" value="gloss" style="rounded=0;whiteSpace=wrap;html=1;hachureGap=4;pointerEvents=0;fontSize=24;fillColor=#d5e8d4;strokeColor=#82b366;" parent="1" vertex="1">
          <mxGeometry x="70" y="780" width="120" height="60" as="geometry" />
        </mxCell>
        <mxCell id="nnM_vdUUp27lyh8uVQgL-11" value="s_inf" style="rounded=0;whiteSpace=wrap;html=1;hachureGap=4;pointerEvents=0;fontSize=24;fillColor=#d5e8d4;strokeColor=#82b366;" parent="1" vertex="1">
          <mxGeometry x="70" y="840" width="120" height="60" as="geometry" />
        </mxCell>
        <mxCell id="nnM_vdUUp27lyh8uVQgL-12" value="xref" style="rounded=0;whiteSpace=wrap;html=1;hachureGap=4;pointerEvents=0;fontSize=24;fillColor=#d5e8d4;strokeColor=#82b366;" parent="1" vertex="1">
          <mxGeometry x="70" y="900" width="120" height="60" as="geometry" />
        </mxCell>
        <mxCell id="nnM_vdUUp27lyh8uVQgL-13" value="misc" style="rounded=0;whiteSpace=wrap;html=1;hachureGap=4;pointerEvents=0;fontSize=24;fillColor=#d5e8d4;strokeColor=#82b366;" parent="1" vertex="1">
          <mxGeometry x="70" y="960" width="120" height="60" as="geometry" />
        </mxCell>
        <mxCell id="nnM_vdUUp27lyh8uVQgL-14" value="lsource" style="rounded=0;whiteSpace=wrap;html=1;hachureGap=4;pointerEvents=0;fontSize=24;fillColor=#d5e8d4;strokeColor=#82b366;" parent="1" vertex="1">
          <mxGeometry x="70" y="1020" width="120" height="60" as="geometry" />
        </mxCell>
        <mxCell id="nnM_vdUUp27lyh8uVQgL-15" value="field" style="rounded=0;whiteSpace=wrap;html=1;hachureGap=4;pointerEvents=0;fontSize=24;fillColor=#d5e8d4;strokeColor=#82b366;" parent="1" vertex="1">
          <mxGeometry x="70" y="1080" width="120" height="60" as="geometry" />
        </mxCell>
        <mxCell id="nnM_vdUUp27lyh8uVQgL-16" value="ant" style="rounded=0;whiteSpace=wrap;html=1;hachureGap=4;pointerEvents=0;fontSize=24;fillColor=#d5e8d4;strokeColor=#82b366;" parent="1" vertex="1">
          <mxGeometry x="70" y="1140" width="120" height="60" as="geometry" />
        </mxCell>
        <mxCell id="nnM_vdUUp27lyh8uVQgL-17" value="dial" style="rounded=0;whiteSpace=wrap;html=1;hachureGap=4;pointerEvents=0;fontSize=24;fillColor=#d5e8d4;strokeColor=#82b366;" parent="1" vertex="1">
          <mxGeometry x="70" y="1200" width="120" height="60" as="geometry" />
        </mxCell>
        <mxCell id="nnM_vdUUp27lyh8uVQgL-18" value="stagk" style="rounded=0;whiteSpace=wrap;html=1;hachureGap=4;pointerEvents=0;fontSize=24;fillColor=#d5e8d4;strokeColor=#82b366;" parent="1" vertex="1">
          <mxGeometry x="70" y="1260" width="120" height="60" as="geometry" />
        </mxCell>
        <mxCell id="nnM_vdUUp27lyh8uVQgL-19" value="stagr" style="rounded=0;whiteSpace=wrap;html=1;hachureGap=4;pointerEvents=0;fontSize=24;fillColor=#d5e8d4;strokeColor=#82b366;" parent="1" vertex="1">
          <mxGeometry x="70" y="1320" width="120" height="60" as="geometry" />
        </mxCell>
        <mxCell id="nnM_vdUUp27lyh8uVQgL-20" value="" style="rounded=0;whiteSpace=wrap;html=1;hachureGap=4;pointerEvents=0;fontSize=24;fillColor=#dae8fc;strokeColor=#6c8ebf;" parent="1" vertex="1">
          <mxGeometry x="290" y="210" width="120" height="60" as="geometry" />
        </mxCell>
        <mxCell id="nnM_vdUUp27lyh8uVQgL-21" value="" style="rounded=0;whiteSpace=wrap;html=1;hachureGap=4;pointerEvents=0;fontSize=24;fillColor=#dae8fc;strokeColor=#6c8ebf;" parent="1" vertex="1">
          <mxGeometry x="290" y="270" width="120" height="60" as="geometry" />
        </mxCell>
        <mxCell id="nnM_vdUUp27lyh8uVQgL-22" value="" style="rounded=0;whiteSpace=wrap;html=1;hachureGap=4;pointerEvents=0;fontSize=24;fillColor=#dae8fc;strokeColor=#6c8ebf;" parent="1" vertex="1">
          <mxGeometry x="290" y="330" width="120" height="60" as="geometry" />
        </mxCell>
        <mxCell id="nnM_vdUUp27lyh8uVQgL-23" value="" style="rounded=0;whiteSpace=wrap;html=1;hachureGap=4;pointerEvents=0;fontSize=24;fillColor=#dae8fc;strokeColor=#6c8ebf;" parent="1" vertex="1">
          <mxGeometry x="290" y="390" width="120" height="60" as="geometry" />
        </mxCell>
        <mxCell id="nnM_vdUUp27lyh8uVQgL-24" value="" style="rounded=0;whiteSpace=wrap;html=1;hachureGap=4;pointerEvents=0;fontSize=24;fillColor=#fff2cc;strokeColor=#d6b656;" parent="1" vertex="1">
          <mxGeometry x="290" y="530" width="120" height="60" as="geometry" />
        </mxCell>
        <mxCell id="nnM_vdUUp27lyh8uVQgL-25" value="" style="rounded=0;whiteSpace=wrap;html=1;hachureGap=4;pointerEvents=0;fontSize=24;fillColor=#fff2cc;strokeColor=#d6b656;" parent="1" vertex="1">
          <mxGeometry x="290" y="590" width="120" height="60" as="geometry" />
        </mxCell>
        <mxCell id="nnM_vdUUp27lyh8uVQgL-26" value="" style="rounded=0;whiteSpace=wrap;html=1;hachureGap=4;pointerEvents=0;fontSize=24;fillColor=#fff2cc;strokeColor=#d6b656;" parent="1" vertex="1">
          <mxGeometry x="290" y="650" width="120" height="60" as="geometry" />
        </mxCell>
        <mxCell id="nnM_vdUUp27lyh8uVQgL-27" value="" style="rounded=0;whiteSpace=wrap;html=1;hachureGap=4;pointerEvents=0;fontSize=24;fillColor=#dae8fc;strokeColor=#6c8ebf;" parent="1" vertex="1">
          <mxGeometry x="290" y="450" width="120" height="60" as="geometry" />
        </mxCell>
        <mxCell id="nnM_vdUUp27lyh8uVQgL-28" value="" style="rounded=0;whiteSpace=wrap;html=1;hachureGap=4;pointerEvents=0;fontSize=24;fillColor=#d5e8d4;strokeColor=#82b366;" parent="1" vertex="1">
          <mxGeometry x="290" y="720" width="120" height="60" as="geometry" />
        </mxCell>
        <mxCell id="nnM_vdUUp27lyh8uVQgL-29" value="" style="rounded=0;whiteSpace=wrap;html=1;hachureGap=4;pointerEvents=0;fontSize=24;fillColor=#d5e8d4;strokeColor=#82b366;" parent="1" vertex="1">
          <mxGeometry x="290" y="780" width="120" height="60" as="geometry" />
        </mxCell>
        <mxCell id="nnM_vdUUp27lyh8uVQgL-30" value="" style="rounded=0;whiteSpace=wrap;html=1;hachureGap=4;pointerEvents=0;fontSize=24;fillColor=#d5e8d4;strokeColor=#82b366;" parent="1" vertex="1">
          <mxGeometry x="290" y="840" width="120" height="60" as="geometry" />
        </mxCell>
        <mxCell id="nnM_vdUUp27lyh8uVQgL-31" value="" style="rounded=0;whiteSpace=wrap;html=1;hachureGap=4;pointerEvents=0;fontSize=24;fillColor=#d5e8d4;strokeColor=#82b366;" parent="1" vertex="1">
          <mxGeometry x="290" y="900" width="120" height="60" as="geometry" />
        </mxCell>
        <mxCell id="nnM_vdUUp27lyh8uVQgL-32" value="" style="rounded=0;whiteSpace=wrap;html=1;hachureGap=4;pointerEvents=0;fontSize=24;fillColor=#d5e8d4;strokeColor=#82b366;" parent="1" vertex="1">
          <mxGeometry x="290" y="960" width="120" height="60" as="geometry" />
        </mxCell>
        <mxCell id="nnM_vdUUp27lyh8uVQgL-33" value="" style="rounded=0;whiteSpace=wrap;html=1;hachureGap=4;pointerEvents=0;fontSize=24;fillColor=#d5e8d4;strokeColor=#82b366;" parent="1" vertex="1">
          <mxGeometry x="290" y="1020" width="120" height="60" as="geometry" />
        </mxCell>
        <mxCell id="nnM_vdUUp27lyh8uVQgL-34" value="" style="rounded=0;whiteSpace=wrap;html=1;hachureGap=4;pointerEvents=0;fontSize=24;fillColor=#d5e8d4;strokeColor=#82b366;" parent="1" vertex="1">
          <mxGeometry x="290" y="1080" width="120" height="60" as="geometry" />
        </mxCell>
        <mxCell id="nnM_vdUUp27lyh8uVQgL-35" value="" style="rounded=0;whiteSpace=wrap;html=1;hachureGap=4;pointerEvents=0;fontSize=24;fillColor=#d5e8d4;strokeColor=#82b366;" parent="1" vertex="1">
          <mxGeometry x="290" y="1140" width="120" height="60" as="geometry" />
        </mxCell>
        <mxCell id="nnM_vdUUp27lyh8uVQgL-36" value="" style="rounded=0;whiteSpace=wrap;html=1;hachureGap=4;pointerEvents=0;fontSize=24;fillColor=#d5e8d4;strokeColor=#82b366;" parent="1" vertex="1">
          <mxGeometry x="290" y="1200" width="120" height="60" as="geometry" />
        </mxCell>
        <mxCell id="nnM_vdUUp27lyh8uVQgL-37" value="" style="rounded=0;whiteSpace=wrap;html=1;hachureGap=4;pointerEvents=0;fontSize=24;fillColor=#d5e8d4;strokeColor=#82b366;" parent="1" vertex="1">
          <mxGeometry x="290" y="1260" width="120" height="60" as="geometry" />
        </mxCell>
        <mxCell id="nnM_vdUUp27lyh8uVQgL-38" value="" style="rounded=0;whiteSpace=wrap;html=1;hachureGap=4;pointerEvents=0;fontSize=24;fillColor=#d5e8d4;strokeColor=#82b366;" parent="1" vertex="1">
          <mxGeometry x="290" y="1320" width="120" height="60" as="geometry" />
        </mxCell>
        <mxCell id="nnM_vdUUp27lyh8uVQgL-39" value="" style="rounded=0;whiteSpace=wrap;html=1;hachureGap=4;pointerEvents=0;fontSize=24;fillColor=#dae8fc;strokeColor=#6c8ebf;" parent="1" vertex="1">
          <mxGeometry x="450" y="210" width="120" height="60" as="geometry" />
        </mxCell>
        <mxCell id="nnM_vdUUp27lyh8uVQgL-40" value="" style="rounded=0;whiteSpace=wrap;html=1;hachureGap=4;pointerEvents=0;fontSize=24;fillColor=#dae8fc;strokeColor=#6c8ebf;" parent="1" vertex="1">
          <mxGeometry x="450" y="270" width="120" height="60" as="geometry" />
        </mxCell>
        <mxCell id="nnM_vdUUp27lyh8uVQgL-41" value="" style="rounded=0;whiteSpace=wrap;html=1;hachureGap=4;pointerEvents=0;fontSize=24;fillColor=#dae8fc;strokeColor=#6c8ebf;" parent="1" vertex="1">
          <mxGeometry x="450" y="330" width="120" height="60" as="geometry" />
        </mxCell>
        <mxCell id="nnM_vdUUp27lyh8uVQgL-42" value="" style="rounded=0;whiteSpace=wrap;html=1;hachureGap=4;pointerEvents=0;fontSize=24;fillColor=#dae8fc;strokeColor=#6c8ebf;" parent="1" vertex="1">
          <mxGeometry x="450" y="390" width="120" height="60" as="geometry" />
        </mxCell>
        <mxCell id="nnM_vdUUp27lyh8uVQgL-43" value="" style="rounded=0;whiteSpace=wrap;html=1;hachureGap=4;pointerEvents=0;fontSize=24;fillColor=#fff2cc;strokeColor=#d6b656;" parent="1" vertex="1">
          <mxGeometry x="450" y="530" width="120" height="60" as="geometry" />
        </mxCell>
        <mxCell id="nnM_vdUUp27lyh8uVQgL-44" value="" style="rounded=0;whiteSpace=wrap;html=1;hachureGap=4;pointerEvents=0;fontSize=24;fillColor=#fff2cc;strokeColor=#d6b656;" parent="1" vertex="1">
          <mxGeometry x="450" y="590" width="120" height="60" as="geometry" />
        </mxCell>
        <mxCell id="nnM_vdUUp27lyh8uVQgL-45" value="" style="rounded=0;whiteSpace=wrap;html=1;hachureGap=4;pointerEvents=0;fontSize=24;fillColor=#fff2cc;strokeColor=#d6b656;" parent="1" vertex="1">
          <mxGeometry x="450" y="650" width="120" height="60" as="geometry" />
        </mxCell>
        <mxCell id="nnM_vdUUp27lyh8uVQgL-46" value="" style="rounded=0;whiteSpace=wrap;html=1;hachureGap=4;pointerEvents=0;fontSize=24;fillColor=#dae8fc;strokeColor=#6c8ebf;" parent="1" vertex="1">
          <mxGeometry x="450" y="450" width="120" height="60" as="geometry" />
        </mxCell>
        <mxCell id="nnM_vdUUp27lyh8uVQgL-47" value="" style="rounded=0;whiteSpace=wrap;html=1;hachureGap=4;pointerEvents=0;fontSize=24;fillColor=#d5e8d4;strokeColor=#82b366;" parent="1" vertex="1">
          <mxGeometry x="450" y="720" width="120" height="60" as="geometry" />
        </mxCell>
        <mxCell id="nnM_vdUUp27lyh8uVQgL-48" value="" style="rounded=0;whiteSpace=wrap;html=1;hachureGap=4;pointerEvents=0;fontSize=24;fillColor=#d5e8d4;strokeColor=#82b366;" parent="1" vertex="1">
          <mxGeometry x="450" y="780" width="120" height="60" as="geometry" />
        </mxCell>
        <mxCell id="nnM_vdUUp27lyh8uVQgL-49" value="" style="rounded=0;whiteSpace=wrap;html=1;hachureGap=4;pointerEvents=0;fontSize=24;fillColor=#d5e8d4;strokeColor=#82b366;" parent="1" vertex="1">
          <mxGeometry x="450" y="840" width="120" height="60" as="geometry" />
        </mxCell>
        <mxCell id="nnM_vdUUp27lyh8uVQgL-50" value="" style="rounded=0;whiteSpace=wrap;html=1;hachureGap=4;pointerEvents=0;fontSize=24;fillColor=#d5e8d4;strokeColor=#82b366;" parent="1" vertex="1">
          <mxGeometry x="450" y="900" width="120" height="60" as="geometry" />
        </mxCell>
        <mxCell id="nnM_vdUUp27lyh8uVQgL-51" value="" style="rounded=0;whiteSpace=wrap;html=1;hachureGap=4;pointerEvents=0;fontSize=24;fillColor=#d5e8d4;strokeColor=#82b366;" parent="1" vertex="1">
          <mxGeometry x="450" y="960" width="120" height="60" as="geometry" />
        </mxCell>
        <mxCell id="nnM_vdUUp27lyh8uVQgL-52" value="" style="rounded=0;whiteSpace=wrap;html=1;hachureGap=4;pointerEvents=0;fontSize=24;fillColor=#d5e8d4;strokeColor=#82b366;" parent="1" vertex="1">
          <mxGeometry x="450" y="1020" width="120" height="60" as="geometry" />
        </mxCell>
        <mxCell id="nnM_vdUUp27lyh8uVQgL-53" value="" style="rounded=0;whiteSpace=wrap;html=1;hachureGap=4;pointerEvents=0;fontSize=24;fillColor=#d5e8d4;strokeColor=#82b366;" parent="1" vertex="1">
          <mxGeometry x="450" y="1080" width="120" height="60" as="geometry" />
        </mxCell>
        <mxCell id="nnM_vdUUp27lyh8uVQgL-54" value="" style="rounded=0;whiteSpace=wrap;html=1;hachureGap=4;pointerEvents=0;fontSize=24;fillColor=#d5e8d4;strokeColor=#82b366;" parent="1" vertex="1">
          <mxGeometry x="450" y="1140" width="120" height="60" as="geometry" />
        </mxCell>
        <mxCell id="nnM_vdUUp27lyh8uVQgL-55" value="" style="rounded=0;whiteSpace=wrap;html=1;hachureGap=4;pointerEvents=0;fontSize=24;fillColor=#d5e8d4;strokeColor=#82b366;" parent="1" vertex="1">
          <mxGeometry x="450" y="1200" width="120" height="60" as="geometry" />
        </mxCell>
        <mxCell id="nnM_vdUUp27lyh8uVQgL-56" value="" style="rounded=0;whiteSpace=wrap;html=1;hachureGap=4;pointerEvents=0;fontSize=24;fillColor=#d5e8d4;strokeColor=#82b366;" parent="1" vertex="1">
          <mxGeometry x="450" y="1260" width="120" height="60" as="geometry" />
        </mxCell>
        <mxCell id="nnM_vdUUp27lyh8uVQgL-57" value="" style="rounded=0;whiteSpace=wrap;html=1;hachureGap=4;pointerEvents=0;fontSize=24;fillColor=#d5e8d4;strokeColor=#82b366;" parent="1" vertex="1">
          <mxGeometry x="450" y="1320" width="120" height="60" as="geometry" />
        </mxCell>
        <mxCell id="nnM_vdUUp27lyh8uVQgL-58" value="" style="rounded=0;whiteSpace=wrap;html=1;hachureGap=4;pointerEvents=0;fontSize=24;fillColor=#dae8fc;strokeColor=#6c8ebf;" parent="1" vertex="1">
          <mxGeometry x="600" y="210" width="120" height="60" as="geometry" />
        </mxCell>
        <mxCell id="nnM_vdUUp27lyh8uVQgL-59" value="" style="rounded=0;whiteSpace=wrap;html=1;hachureGap=4;pointerEvents=0;fontSize=24;fillColor=#dae8fc;strokeColor=#6c8ebf;" parent="1" vertex="1">
          <mxGeometry x="600" y="270" width="120" height="60" as="geometry" />
        </mxCell>
        <mxCell id="nnM_vdUUp27lyh8uVQgL-60" value="" style="rounded=0;whiteSpace=wrap;html=1;hachureGap=4;pointerEvents=0;fontSize=24;fillColor=#dae8fc;strokeColor=#6c8ebf;" parent="1" vertex="1">
          <mxGeometry x="600" y="330" width="120" height="60" as="geometry" />
        </mxCell>
        <mxCell id="nnM_vdUUp27lyh8uVQgL-61" value="" style="rounded=0;whiteSpace=wrap;html=1;hachureGap=4;pointerEvents=0;fontSize=24;fillColor=#dae8fc;strokeColor=#6c8ebf;" parent="1" vertex="1">
          <mxGeometry x="600" y="390" width="120" height="60" as="geometry" />
        </mxCell>
        <mxCell id="nnM_vdUUp27lyh8uVQgL-62" value="" style="rounded=0;whiteSpace=wrap;html=1;hachureGap=4;pointerEvents=0;fontSize=24;fillColor=#fff2cc;strokeColor=#d6b656;" parent="1" vertex="1">
          <mxGeometry x="600" y="530" width="120" height="60" as="geometry" />
        </mxCell>
        <mxCell id="nnM_vdUUp27lyh8uVQgL-63" value="" style="rounded=0;whiteSpace=wrap;html=1;hachureGap=4;pointerEvents=0;fontSize=24;fillColor=#fff2cc;strokeColor=#d6b656;" parent="1" vertex="1">
          <mxGeometry x="600" y="590" width="120" height="60" as="geometry" />
        </mxCell>
        <mxCell id="nnM_vdUUp27lyh8uVQgL-64" value="" style="rounded=0;whiteSpace=wrap;html=1;hachureGap=4;pointerEvents=0;fontSize=24;fillColor=#fff2cc;strokeColor=#d6b656;" parent="1" vertex="1">
          <mxGeometry x="600" y="650" width="120" height="60" as="geometry" />
        </mxCell>
        <mxCell id="nnM_vdUUp27lyh8uVQgL-65" value="" style="rounded=0;whiteSpace=wrap;html=1;hachureGap=4;pointerEvents=0;fontSize=24;fillColor=#dae8fc;strokeColor=#6c8ebf;" parent="1" vertex="1">
          <mxGeometry x="600" y="450" width="120" height="60" as="geometry" />
        </mxCell>
        <mxCell id="nnM_vdUUp27lyh8uVQgL-66" value="" style="rounded=0;whiteSpace=wrap;html=1;hachureGap=4;pointerEvents=0;fontSize=24;fillColor=#d5e8d4;strokeColor=#82b366;" parent="1" vertex="1">
          <mxGeometry x="600" y="720" width="120" height="60" as="geometry" />
        </mxCell>
        <mxCell id="nnM_vdUUp27lyh8uVQgL-67" value="" style="rounded=0;whiteSpace=wrap;html=1;hachureGap=4;pointerEvents=0;fontSize=24;fillColor=#d5e8d4;strokeColor=#82b366;" parent="1" vertex="1">
          <mxGeometry x="600" y="780" width="120" height="60" as="geometry" />
        </mxCell>
        <mxCell id="nnM_vdUUp27lyh8uVQgL-68" value="" style="rounded=0;whiteSpace=wrap;html=1;hachureGap=4;pointerEvents=0;fontSize=24;fillColor=#d5e8d4;strokeColor=#82b366;" parent="1" vertex="1">
          <mxGeometry x="600" y="840" width="120" height="60" as="geometry" />
        </mxCell>
        <mxCell id="nnM_vdUUp27lyh8uVQgL-69" value="" style="rounded=0;whiteSpace=wrap;html=1;hachureGap=4;pointerEvents=0;fontSize=24;fillColor=#d5e8d4;strokeColor=#82b366;" parent="1" vertex="1">
          <mxGeometry x="600" y="900" width="120" height="60" as="geometry" />
        </mxCell>
        <mxCell id="nnM_vdUUp27lyh8uVQgL-70" value="" style="rounded=0;whiteSpace=wrap;html=1;hachureGap=4;pointerEvents=0;fontSize=24;fillColor=#d5e8d4;strokeColor=#82b366;" parent="1" vertex="1">
          <mxGeometry x="600" y="960" width="120" height="60" as="geometry" />
        </mxCell>
        <mxCell id="nnM_vdUUp27lyh8uVQgL-71" value="" style="rounded=0;whiteSpace=wrap;html=1;hachureGap=4;pointerEvents=0;fontSize=24;fillColor=#d5e8d4;strokeColor=#82b366;" parent="1" vertex="1">
          <mxGeometry x="600" y="1020" width="120" height="60" as="geometry" />
        </mxCell>
        <mxCell id="nnM_vdUUp27lyh8uVQgL-72" value="" style="rounded=0;whiteSpace=wrap;html=1;hachureGap=4;pointerEvents=0;fontSize=24;fillColor=#d5e8d4;strokeColor=#82b366;" parent="1" vertex="1">
          <mxGeometry x="600" y="1080" width="120" height="60" as="geometry" />
        </mxCell>
        <mxCell id="nnM_vdUUp27lyh8uVQgL-73" value="" style="rounded=0;whiteSpace=wrap;html=1;hachureGap=4;pointerEvents=0;fontSize=24;fillColor=#d5e8d4;strokeColor=#82b366;" parent="1" vertex="1">
          <mxGeometry x="600" y="1140" width="120" height="60" as="geometry" />
        </mxCell>
        <mxCell id="nnM_vdUUp27lyh8uVQgL-74" value="" style="rounded=0;whiteSpace=wrap;html=1;hachureGap=4;pointerEvents=0;fontSize=24;fillColor=#d5e8d4;strokeColor=#82b366;" parent="1" vertex="1">
          <mxGeometry x="600" y="1200" width="120" height="60" as="geometry" />
        </mxCell>
        <mxCell id="nnM_vdUUp27lyh8uVQgL-75" value="" style="rounded=0;whiteSpace=wrap;html=1;hachureGap=4;pointerEvents=0;fontSize=24;fillColor=#d5e8d4;strokeColor=#82b366;" parent="1" vertex="1">
          <mxGeometry x="600" y="1260" width="120" height="60" as="geometry" />
        </mxCell>
        <mxCell id="nnM_vdUUp27lyh8uVQgL-76" value="" style="rounded=0;whiteSpace=wrap;html=1;hachureGap=4;pointerEvents=0;fontSize=24;fillColor=#d5e8d4;strokeColor=#82b366;" parent="1" vertex="1">
          <mxGeometry x="600" y="1320" width="120" height="60" as="geometry" />
        </mxCell>
        <mxCell id="nnM_vdUUp27lyh8uVQgL-77" value="" style="rounded=0;whiteSpace=wrap;html=1;hachureGap=4;pointerEvents=0;fontSize=24;fillColor=#dae8fc;strokeColor=#6c8ebf;" parent="1" vertex="1">
          <mxGeometry x="760" y="210" width="120" height="60" as="geometry" />
        </mxCell>
        <mxCell id="nnM_vdUUp27lyh8uVQgL-78" value="" style="rounded=0;whiteSpace=wrap;html=1;hachureGap=4;pointerEvents=0;fontSize=24;fillColor=#dae8fc;strokeColor=#6c8ebf;" parent="1" vertex="1">
          <mxGeometry x="760" y="270" width="120" height="60" as="geometry" />
        </mxCell>
        <mxCell id="nnM_vdUUp27lyh8uVQgL-79" value="" style="rounded=0;whiteSpace=wrap;html=1;hachureGap=4;pointerEvents=0;fontSize=24;fillColor=#dae8fc;strokeColor=#6c8ebf;" parent="1" vertex="1">
          <mxGeometry x="760" y="330" width="120" height="60" as="geometry" />
        </mxCell>
        <mxCell id="nnM_vdUUp27lyh8uVQgL-80" value="" style="rounded=0;whiteSpace=wrap;html=1;hachureGap=4;pointerEvents=0;fontSize=24;fillColor=#dae8fc;strokeColor=#6c8ebf;" parent="1" vertex="1">
          <mxGeometry x="760" y="390" width="120" height="60" as="geometry" />
        </mxCell>
        <mxCell id="nnM_vdUUp27lyh8uVQgL-81" value="" style="rounded=0;whiteSpace=wrap;html=1;hachureGap=4;pointerEvents=0;fontSize=24;fillColor=#fff2cc;strokeColor=#d6b656;" parent="1" vertex="1">
          <mxGeometry x="760" y="530" width="120" height="60" as="geometry" />
        </mxCell>
        <mxCell id="nnM_vdUUp27lyh8uVQgL-82" value="" style="rounded=0;whiteSpace=wrap;html=1;hachureGap=4;pointerEvents=0;fontSize=24;fillColor=#fff2cc;strokeColor=#d6b656;" parent="1" vertex="1">
          <mxGeometry x="760" y="590" width="120" height="60" as="geometry" />
        </mxCell>
        <mxCell id="nnM_vdUUp27lyh8uVQgL-83" value="" style="rounded=0;whiteSpace=wrap;html=1;hachureGap=4;pointerEvents=0;fontSize=24;fillColor=#fff2cc;strokeColor=#d6b656;" parent="1" vertex="1">
          <mxGeometry x="760" y="650" width="120" height="60" as="geometry" />
        </mxCell>
        <mxCell id="nnM_vdUUp27lyh8uVQgL-84" value="" style="rounded=0;whiteSpace=wrap;html=1;hachureGap=4;pointerEvents=0;fontSize=24;fillColor=#dae8fc;strokeColor=#6c8ebf;" parent="1" vertex="1">
          <mxGeometry x="760" y="450" width="120" height="60" as="geometry" />
        </mxCell>
        <mxCell id="nnM_vdUUp27lyh8uVQgL-85" value="" style="rounded=0;whiteSpace=wrap;html=1;hachureGap=4;pointerEvents=0;fontSize=24;fillColor=#d5e8d4;strokeColor=#82b366;" parent="1" vertex="1">
          <mxGeometry x="760" y="720" width="120" height="60" as="geometry" />
        </mxCell>
        <mxCell id="nnM_vdUUp27lyh8uVQgL-86" value="" style="rounded=0;whiteSpace=wrap;html=1;hachureGap=4;pointerEvents=0;fontSize=24;fillColor=#d5e8d4;strokeColor=#82b366;" parent="1" vertex="1">
          <mxGeometry x="760" y="780" width="120" height="60" as="geometry" />
        </mxCell>
        <mxCell id="nnM_vdUUp27lyh8uVQgL-87" value="" style="rounded=0;whiteSpace=wrap;html=1;hachureGap=4;pointerEvents=0;fontSize=24;fillColor=#d5e8d4;strokeColor=#82b366;" parent="1" vertex="1">
          <mxGeometry x="760" y="840" width="120" height="60" as="geometry" />
        </mxCell>
        <mxCell id="nnM_vdUUp27lyh8uVQgL-88" value="" style="rounded=0;whiteSpace=wrap;html=1;hachureGap=4;pointerEvents=0;fontSize=24;fillColor=#d5e8d4;strokeColor=#82b366;" parent="1" vertex="1">
          <mxGeometry x="760" y="900" width="120" height="60" as="geometry" />
        </mxCell>
        <mxCell id="nnM_vdUUp27lyh8uVQgL-89" value="" style="rounded=0;whiteSpace=wrap;html=1;hachureGap=4;pointerEvents=0;fontSize=24;fillColor=#d5e8d4;strokeColor=#82b366;" parent="1" vertex="1">
          <mxGeometry x="760" y="960" width="120" height="60" as="geometry" />
        </mxCell>
        <mxCell id="nnM_vdUUp27lyh8uVQgL-90" value="" style="rounded=0;whiteSpace=wrap;html=1;hachureGap=4;pointerEvents=0;fontSize=24;fillColor=#d5e8d4;strokeColor=#82b366;" parent="1" vertex="1">
          <mxGeometry x="760" y="1020" width="120" height="60" as="geometry" />
        </mxCell>
        <mxCell id="nnM_vdUUp27lyh8uVQgL-91" value="" style="rounded=0;whiteSpace=wrap;html=1;hachureGap=4;pointerEvents=0;fontSize=24;fillColor=#d5e8d4;strokeColor=#82b366;" parent="1" vertex="1">
          <mxGeometry x="760" y="1080" width="120" height="60" as="geometry" />
        </mxCell>
        <mxCell id="nnM_vdUUp27lyh8uVQgL-92" value="" style="rounded=0;whiteSpace=wrap;html=1;hachureGap=4;pointerEvents=0;fontSize=24;fillColor=#d5e8d4;strokeColor=#82b366;" parent="1" vertex="1">
          <mxGeometry x="760" y="1140" width="120" height="60" as="geometry" />
        </mxCell>
        <mxCell id="nnM_vdUUp27lyh8uVQgL-93" value="" style="rounded=0;whiteSpace=wrap;html=1;hachureGap=4;pointerEvents=0;fontSize=24;fillColor=#d5e8d4;strokeColor=#82b366;" parent="1" vertex="1">
          <mxGeometry x="760" y="1200" width="120" height="60" as="geometry" />
        </mxCell>
        <mxCell id="nnM_vdUUp27lyh8uVQgL-94" value="" style="rounded=0;whiteSpace=wrap;html=1;hachureGap=4;pointerEvents=0;fontSize=24;fillColor=#d5e8d4;strokeColor=#82b366;" parent="1" vertex="1">
          <mxGeometry x="760" y="1260" width="120" height="60" as="geometry" />
        </mxCell>
        <mxCell id="nnM_vdUUp27lyh8uVQgL-95" value="" style="rounded=0;whiteSpace=wrap;html=1;hachureGap=4;pointerEvents=0;fontSize=24;fillColor=#d5e8d4;strokeColor=#82b366;" parent="1" vertex="1">
          <mxGeometry x="760" y="1320" width="120" height="60" as="geometry" />
        </mxCell>
        <mxCell id="nnM_vdUUp27lyh8uVQgL-96" value="" style="rounded=0;whiteSpace=wrap;html=1;hachureGap=4;pointerEvents=0;fontSize=24;fillColor=#dae8fc;strokeColor=#6c8ebf;" parent="1" vertex="1">
          <mxGeometry x="920" y="210" width="120" height="60" as="geometry" />
        </mxCell>
        <mxCell id="nnM_vdUUp27lyh8uVQgL-97" value="" style="rounded=0;whiteSpace=wrap;html=1;hachureGap=4;pointerEvents=0;fontSize=24;fillColor=#dae8fc;strokeColor=#6c8ebf;" parent="1" vertex="1">
          <mxGeometry x="920" y="270" width="120" height="60" as="geometry" />
        </mxCell>
        <mxCell id="nnM_vdUUp27lyh8uVQgL-98" value="" style="rounded=0;whiteSpace=wrap;html=1;hachureGap=4;pointerEvents=0;fontSize=24;fillColor=#dae8fc;strokeColor=#6c8ebf;" parent="1" vertex="1">
          <mxGeometry x="920" y="330" width="120" height="60" as="geometry" />
        </mxCell>
        <mxCell id="nnM_vdUUp27lyh8uVQgL-99" value="" style="rounded=0;whiteSpace=wrap;html=1;hachureGap=4;pointerEvents=0;fontSize=24;fillColor=#dae8fc;strokeColor=#6c8ebf;" parent="1" vertex="1">
          <mxGeometry x="920" y="390" width="120" height="60" as="geometry" />
        </mxCell>
        <mxCell id="nnM_vdUUp27lyh8uVQgL-100" value="" style="rounded=0;whiteSpace=wrap;html=1;hachureGap=4;pointerEvents=0;fontSize=24;fillColor=#fff2cc;strokeColor=#d6b656;" parent="1" vertex="1">
          <mxGeometry x="920" y="530" width="120" height="60" as="geometry" />
        </mxCell>
        <mxCell id="nnM_vdUUp27lyh8uVQgL-101" value="" style="rounded=0;whiteSpace=wrap;html=1;hachureGap=4;pointerEvents=0;fontSize=24;fillColor=#fff2cc;strokeColor=#d6b656;" parent="1" vertex="1">
          <mxGeometry x="920" y="590" width="120" height="60" as="geometry" />
        </mxCell>
        <mxCell id="nnM_vdUUp27lyh8uVQgL-102" value="" style="rounded=0;whiteSpace=wrap;html=1;hachureGap=4;pointerEvents=0;fontSize=24;fillColor=#fff2cc;strokeColor=#d6b656;" parent="1" vertex="1">
          <mxGeometry x="920" y="650" width="120" height="60" as="geometry" />
        </mxCell>
        <mxCell id="nnM_vdUUp27lyh8uVQgL-103" value="" style="rounded=0;whiteSpace=wrap;html=1;hachureGap=4;pointerEvents=0;fontSize=24;fillColor=#dae8fc;strokeColor=#6c8ebf;" parent="1" vertex="1">
          <mxGeometry x="920" y="450" width="120" height="60" as="geometry" />
        </mxCell>
        <mxCell id="nnM_vdUUp27lyh8uVQgL-104" value="" style="rounded=0;whiteSpace=wrap;html=1;hachureGap=4;pointerEvents=0;fontSize=24;fillColor=#d5e8d4;strokeColor=#82b366;" parent="1" vertex="1">
          <mxGeometry x="920" y="720" width="120" height="60" as="geometry" />
        </mxCell>
        <mxCell id="nnM_vdUUp27lyh8uVQgL-105" value="" style="rounded=0;whiteSpace=wrap;html=1;hachureGap=4;pointerEvents=0;fontSize=24;fillColor=#d5e8d4;strokeColor=#82b366;" parent="1" vertex="1">
          <mxGeometry x="920" y="780" width="120" height="60" as="geometry" />
        </mxCell>
        <mxCell id="nnM_vdUUp27lyh8uVQgL-106" value="" style="rounded=0;whiteSpace=wrap;html=1;hachureGap=4;pointerEvents=0;fontSize=24;fillColor=#d5e8d4;strokeColor=#82b366;" parent="1" vertex="1">
          <mxGeometry x="920" y="840" width="120" height="60" as="geometry" />
        </mxCell>
        <mxCell id="nnM_vdUUp27lyh8uVQgL-107" value="" style="rounded=0;whiteSpace=wrap;html=1;hachureGap=4;pointerEvents=0;fontSize=24;fillColor=#d5e8d4;strokeColor=#82b366;" parent="1" vertex="1">
          <mxGeometry x="920" y="900" width="120" height="60" as="geometry" />
        </mxCell>
        <mxCell id="nnM_vdUUp27lyh8uVQgL-108" value="" style="rounded=0;whiteSpace=wrap;html=1;hachureGap=4;pointerEvents=0;fontSize=24;fillColor=#d5e8d4;strokeColor=#82b366;" parent="1" vertex="1">
          <mxGeometry x="920" y="960" width="120" height="60" as="geometry" />
        </mxCell>
        <mxCell id="nnM_vdUUp27lyh8uVQgL-109" value="" style="rounded=0;whiteSpace=wrap;html=1;hachureGap=4;pointerEvents=0;fontSize=24;fillColor=#d5e8d4;strokeColor=#82b366;" parent="1" vertex="1">
          <mxGeometry x="920" y="1020" width="120" height="60" as="geometry" />
        </mxCell>
        <mxCell id="nnM_vdUUp27lyh8uVQgL-110" value="" style="rounded=0;whiteSpace=wrap;html=1;hachureGap=4;pointerEvents=0;fontSize=24;fillColor=#d5e8d4;strokeColor=#82b366;" parent="1" vertex="1">
          <mxGeometry x="920" y="1080" width="120" height="60" as="geometry" />
        </mxCell>
        <mxCell id="nnM_vdUUp27lyh8uVQgL-111" value="" style="rounded=0;whiteSpace=wrap;html=1;hachureGap=4;pointerEvents=0;fontSize=24;fillColor=#d5e8d4;strokeColor=#82b366;" parent="1" vertex="1">
          <mxGeometry x="920" y="1140" width="120" height="60" as="geometry" />
        </mxCell>
        <mxCell id="nnM_vdUUp27lyh8uVQgL-112" value="" style="rounded=0;whiteSpace=wrap;html=1;hachureGap=4;pointerEvents=0;fontSize=24;fillColor=#d5e8d4;strokeColor=#82b366;" parent="1" vertex="1">
          <mxGeometry x="920" y="1200" width="120" height="60" as="geometry" />
        </mxCell>
        <mxCell id="nnM_vdUUp27lyh8uVQgL-113" value="" style="rounded=0;whiteSpace=wrap;html=1;hachureGap=4;pointerEvents=0;fontSize=24;fillColor=#d5e8d4;strokeColor=#82b366;" parent="1" vertex="1">
          <mxGeometry x="920" y="1260" width="120" height="60" as="geometry" />
        </mxCell>
        <mxCell id="nnM_vdUUp27lyh8uVQgL-114" value="" style="rounded=0;whiteSpace=wrap;html=1;hachureGap=4;pointerEvents=0;fontSize=24;fillColor=#d5e8d4;strokeColor=#82b366;" parent="1" vertex="1">
          <mxGeometry x="920" y="1320" width="120" height="60" as="geometry" />
        </mxCell>
        <mxCell id="nnM_vdUUp27lyh8uVQgL-115" value="" style="rounded=0;whiteSpace=wrap;html=1;hachureGap=4;pointerEvents=0;fontSize=24;fillColor=#dae8fc;strokeColor=#6c8ebf;" parent="1" vertex="1">
          <mxGeometry x="1080" y="210" width="120" height="60" as="geometry" />
        </mxCell>
        <mxCell id="nnM_vdUUp27lyh8uVQgL-116" value="" style="rounded=0;whiteSpace=wrap;html=1;hachureGap=4;pointerEvents=0;fontSize=24;fillColor=#dae8fc;strokeColor=#6c8ebf;" parent="1" vertex="1">
          <mxGeometry x="1080" y="270" width="120" height="60" as="geometry" />
        </mxCell>
        <mxCell id="nnM_vdUUp27lyh8uVQgL-117" value="" style="rounded=0;whiteSpace=wrap;html=1;hachureGap=4;pointerEvents=0;fontSize=24;fillColor=#dae8fc;strokeColor=#6c8ebf;" parent="1" vertex="1">
          <mxGeometry x="1080" y="330" width="120" height="60" as="geometry" />
        </mxCell>
        <mxCell id="nnM_vdUUp27lyh8uVQgL-118" value="" style="rounded=0;whiteSpace=wrap;html=1;hachureGap=4;pointerEvents=0;fontSize=24;fillColor=#dae8fc;strokeColor=#6c8ebf;" parent="1" vertex="1">
          <mxGeometry x="1080" y="390" width="120" height="60" as="geometry" />
        </mxCell>
        <mxCell id="nnM_vdUUp27lyh8uVQgL-119" value="" style="rounded=0;whiteSpace=wrap;html=1;hachureGap=4;pointerEvents=0;fontSize=24;fillColor=#fff2cc;strokeColor=#d6b656;" parent="1" vertex="1">
          <mxGeometry x="1080" y="530" width="120" height="60" as="geometry" />
        </mxCell>
        <mxCell id="nnM_vdUUp27lyh8uVQgL-120" value="" style="rounded=0;whiteSpace=wrap;html=1;hachureGap=4;pointerEvents=0;fontSize=24;fillColor=#fff2cc;strokeColor=#d6b656;" parent="1" vertex="1">
          <mxGeometry x="1080" y="590" width="120" height="60" as="geometry" />
        </mxCell>
        <mxCell id="nnM_vdUUp27lyh8uVQgL-121" value="" style="rounded=0;whiteSpace=wrap;html=1;hachureGap=4;pointerEvents=0;fontSize=24;fillColor=#fff2cc;strokeColor=#d6b656;" parent="1" vertex="1">
          <mxGeometry x="1080" y="650" width="120" height="60" as="geometry" />
        </mxCell>
        <mxCell id="nnM_vdUUp27lyh8uVQgL-122" value="" style="rounded=0;whiteSpace=wrap;html=1;hachureGap=4;pointerEvents=0;fontSize=24;fillColor=#dae8fc;strokeColor=#6c8ebf;" parent="1" vertex="1">
          <mxGeometry x="1080" y="450" width="120" height="60" as="geometry" />
        </mxCell>
        <mxCell id="nnM_vdUUp27lyh8uVQgL-123" value="" style="rounded=0;whiteSpace=wrap;html=1;hachureGap=4;pointerEvents=0;fontSize=24;fillColor=#d5e8d4;strokeColor=#82b366;" parent="1" vertex="1">
          <mxGeometry x="1080" y="720" width="120" height="60" as="geometry" />
        </mxCell>
        <mxCell id="nnM_vdUUp27lyh8uVQgL-124" value="" style="rounded=0;whiteSpace=wrap;html=1;hachureGap=4;pointerEvents=0;fontSize=24;fillColor=#d5e8d4;strokeColor=#82b366;" parent="1" vertex="1">
          <mxGeometry x="1080" y="780" width="120" height="60" as="geometry" />
        </mxCell>
        <mxCell id="nnM_vdUUp27lyh8uVQgL-125" value="" style="rounded=0;whiteSpace=wrap;html=1;hachureGap=4;pointerEvents=0;fontSize=24;fillColor=#d5e8d4;strokeColor=#82b366;" parent="1" vertex="1">
          <mxGeometry x="1080" y="840" width="120" height="60" as="geometry" />
        </mxCell>
        <mxCell id="nnM_vdUUp27lyh8uVQgL-126" value="" style="rounded=0;whiteSpace=wrap;html=1;hachureGap=4;pointerEvents=0;fontSize=24;fillColor=#d5e8d4;strokeColor=#82b366;" parent="1" vertex="1">
          <mxGeometry x="1080" y="900" width="120" height="60" as="geometry" />
        </mxCell>
        <mxCell id="nnM_vdUUp27lyh8uVQgL-127" value="" style="rounded=0;whiteSpace=wrap;html=1;hachureGap=4;pointerEvents=0;fontSize=24;fillColor=#d5e8d4;strokeColor=#82b366;" parent="1" vertex="1">
          <mxGeometry x="1080" y="960" width="120" height="60" as="geometry" />
        </mxCell>
        <mxCell id="nnM_vdUUp27lyh8uVQgL-128" value="" style="rounded=0;whiteSpace=wrap;html=1;hachureGap=4;pointerEvents=0;fontSize=24;fillColor=#d5e8d4;strokeColor=#82b366;" parent="1" vertex="1">
          <mxGeometry x="1080" y="1020" width="120" height="60" as="geometry" />
        </mxCell>
        <mxCell id="nnM_vdUUp27lyh8uVQgL-129" value="" style="rounded=0;whiteSpace=wrap;html=1;hachureGap=4;pointerEvents=0;fontSize=24;fillColor=#d5e8d4;strokeColor=#82b366;" parent="1" vertex="1">
          <mxGeometry x="1080" y="1080" width="120" height="60" as="geometry" />
        </mxCell>
        <mxCell id="nnM_vdUUp27lyh8uVQgL-130" value="" style="rounded=0;whiteSpace=wrap;html=1;hachureGap=4;pointerEvents=0;fontSize=24;fillColor=#d5e8d4;strokeColor=#82b366;" parent="1" vertex="1">
          <mxGeometry x="1080" y="1140" width="120" height="60" as="geometry" />
        </mxCell>
        <mxCell id="nnM_vdUUp27lyh8uVQgL-131" value="" style="rounded=0;whiteSpace=wrap;html=1;hachureGap=4;pointerEvents=0;fontSize=24;fillColor=#d5e8d4;strokeColor=#82b366;" parent="1" vertex="1">
          <mxGeometry x="1080" y="1200" width="120" height="60" as="geometry" />
        </mxCell>
        <mxCell id="nnM_vdUUp27lyh8uVQgL-132" value="" style="rounded=0;whiteSpace=wrap;html=1;hachureGap=4;pointerEvents=0;fontSize=24;fillColor=#d5e8d4;strokeColor=#82b366;" parent="1" vertex="1">
          <mxGeometry x="1080" y="1260" width="120" height="60" as="geometry" />
        </mxCell>
        <mxCell id="nnM_vdUUp27lyh8uVQgL-133" value="" style="rounded=0;whiteSpace=wrap;html=1;hachureGap=4;pointerEvents=0;fontSize=24;fillColor=#d5e8d4;strokeColor=#82b366;" parent="1" vertex="1">
          <mxGeometry x="1080" y="1320" width="120" height="60" as="geometry" />
        </mxCell>
        <mxCell id="nnM_vdUUp27lyh8uVQgL-134" value="" style="rounded=0;whiteSpace=wrap;html=1;hachureGap=4;pointerEvents=0;fontSize=24;fillColor=#dae8fc;strokeColor=#6c8ebf;" parent="1" vertex="1">
          <mxGeometry x="1230" y="210" width="120" height="60" as="geometry" />
        </mxCell>
        <mxCell id="nnM_vdUUp27lyh8uVQgL-135" value="" style="rounded=0;whiteSpace=wrap;html=1;hachureGap=4;pointerEvents=0;fontSize=24;fillColor=#dae8fc;strokeColor=#6c8ebf;" parent="1" vertex="1">
          <mxGeometry x="1230" y="270" width="120" height="60" as="geometry" />
        </mxCell>
        <mxCell id="nnM_vdUUp27lyh8uVQgL-136" value="" style="rounded=0;whiteSpace=wrap;html=1;hachureGap=4;pointerEvents=0;fontSize=24;fillColor=#dae8fc;strokeColor=#6c8ebf;" parent="1" vertex="1">
          <mxGeometry x="1230" y="330" width="120" height="60" as="geometry" />
        </mxCell>
        <mxCell id="nnM_vdUUp27lyh8uVQgL-137" value="" style="rounded=0;whiteSpace=wrap;html=1;hachureGap=4;pointerEvents=0;fontSize=24;fillColor=#dae8fc;strokeColor=#6c8ebf;" parent="1" vertex="1">
          <mxGeometry x="1230" y="390" width="120" height="60" as="geometry" />
        </mxCell>
        <mxCell id="nnM_vdUUp27lyh8uVQgL-138" value="" style="rounded=0;whiteSpace=wrap;html=1;hachureGap=4;pointerEvents=0;fontSize=24;fillColor=#fff2cc;strokeColor=#d6b656;" parent="1" vertex="1">
          <mxGeometry x="1230" y="530" width="120" height="60" as="geometry" />
        </mxCell>
        <mxCell id="nnM_vdUUp27lyh8uVQgL-139" value="" style="rounded=0;whiteSpace=wrap;html=1;hachureGap=4;pointerEvents=0;fontSize=24;fillColor=#fff2cc;strokeColor=#d6b656;" parent="1" vertex="1">
          <mxGeometry x="1230" y="590" width="120" height="60" as="geometry" />
        </mxCell>
        <mxCell id="nnM_vdUUp27lyh8uVQgL-140" value="" style="rounded=0;whiteSpace=wrap;html=1;hachureGap=4;pointerEvents=0;fontSize=24;fillColor=#fff2cc;strokeColor=#d6b656;" parent="1" vertex="1">
          <mxGeometry x="1230" y="650" width="120" height="60" as="geometry" />
        </mxCell>
        <mxCell id="nnM_vdUUp27lyh8uVQgL-141" value="" style="rounded=0;whiteSpace=wrap;html=1;hachureGap=4;pointerEvents=0;fontSize=24;fillColor=#dae8fc;strokeColor=#6c8ebf;" parent="1" vertex="1">
          <mxGeometry x="1230" y="450" width="120" height="60" as="geometry" />
        </mxCell>
        <mxCell id="nnM_vdUUp27lyh8uVQgL-142" value="" style="rounded=0;whiteSpace=wrap;html=1;hachureGap=4;pointerEvents=0;fontSize=24;fillColor=#d5e8d4;strokeColor=#82b366;" parent="1" vertex="1">
          <mxGeometry x="1230" y="720" width="120" height="60" as="geometry" />
        </mxCell>
        <mxCell id="nnM_vdUUp27lyh8uVQgL-143" value="" style="rounded=0;whiteSpace=wrap;html=1;hachureGap=4;pointerEvents=0;fontSize=24;fillColor=#d5e8d4;strokeColor=#82b366;" parent="1" vertex="1">
          <mxGeometry x="1230" y="780" width="120" height="60" as="geometry" />
        </mxCell>
        <mxCell id="nnM_vdUUp27lyh8uVQgL-144" value="" style="rounded=0;whiteSpace=wrap;html=1;hachureGap=4;pointerEvents=0;fontSize=24;fillColor=#d5e8d4;strokeColor=#82b366;" parent="1" vertex="1">
          <mxGeometry x="1230" y="840" width="120" height="60" as="geometry" />
        </mxCell>
        <mxCell id="nnM_vdUUp27lyh8uVQgL-145" value="" style="rounded=0;whiteSpace=wrap;html=1;hachureGap=4;pointerEvents=0;fontSize=24;fillColor=#d5e8d4;strokeColor=#82b366;" parent="1" vertex="1">
          <mxGeometry x="1230" y="900" width="120" height="60" as="geometry" />
        </mxCell>
        <mxCell id="nnM_vdUUp27lyh8uVQgL-146" value="" style="rounded=0;whiteSpace=wrap;html=1;hachureGap=4;pointerEvents=0;fontSize=24;fillColor=#d5e8d4;strokeColor=#82b366;" parent="1" vertex="1">
          <mxGeometry x="1230" y="960" width="120" height="60" as="geometry" />
        </mxCell>
        <mxCell id="nnM_vdUUp27lyh8uVQgL-147" value="" style="rounded=0;whiteSpace=wrap;html=1;hachureGap=4;pointerEvents=0;fontSize=24;fillColor=#d5e8d4;strokeColor=#82b366;" parent="1" vertex="1">
          <mxGeometry x="1230" y="1020" width="120" height="60" as="geometry" />
        </mxCell>
        <mxCell id="nnM_vdUUp27lyh8uVQgL-148" value="" style="rounded=0;whiteSpace=wrap;html=1;hachureGap=4;pointerEvents=0;fontSize=24;fillColor=#d5e8d4;strokeColor=#82b366;" parent="1" vertex="1">
          <mxGeometry x="1230" y="1080" width="120" height="60" as="geometry" />
        </mxCell>
        <mxCell id="nnM_vdUUp27lyh8uVQgL-149" value="" style="rounded=0;whiteSpace=wrap;html=1;hachureGap=4;pointerEvents=0;fontSize=24;fillColor=#d5e8d4;strokeColor=#82b366;" parent="1" vertex="1">
          <mxGeometry x="1230" y="1140" width="120" height="60" as="geometry" />
        </mxCell>
        <mxCell id="nnM_vdUUp27lyh8uVQgL-150" value="" style="rounded=0;whiteSpace=wrap;html=1;hachureGap=4;pointerEvents=0;fontSize=24;fillColor=#d5e8d4;strokeColor=#82b366;" parent="1" vertex="1">
          <mxGeometry x="1230" y="1200" width="120" height="60" as="geometry" />
        </mxCell>
        <mxCell id="nnM_vdUUp27lyh8uVQgL-151" value="" style="rounded=0;whiteSpace=wrap;html=1;hachureGap=4;pointerEvents=0;fontSize=24;fillColor=#d5e8d4;strokeColor=#82b366;" parent="1" vertex="1">
          <mxGeometry x="1230" y="1260" width="120" height="60" as="geometry" />
        </mxCell>
        <mxCell id="nnM_vdUUp27lyh8uVQgL-152" value="" style="rounded=0;whiteSpace=wrap;html=1;hachureGap=4;pointerEvents=0;fontSize=24;fillColor=#d5e8d4;strokeColor=#82b366;" parent="1" vertex="1">
          <mxGeometry x="1230" y="1320" width="120" height="60" as="geometry" />
        </mxCell>
        <mxCell id="nnM_vdUUp27lyh8uVQgL-153" value="" style="rounded=0;whiteSpace=wrap;html=1;hachureGap=4;pointerEvents=0;fontSize=24;fillColor=#dae8fc;strokeColor=#6c8ebf;" parent="1" vertex="1">
          <mxGeometry x="1390" y="210" width="120" height="60" as="geometry" />
        </mxCell>
        <mxCell id="nnM_vdUUp27lyh8uVQgL-154" value="" style="rounded=0;whiteSpace=wrap;html=1;hachureGap=4;pointerEvents=0;fontSize=24;fillColor=#dae8fc;strokeColor=#6c8ebf;" parent="1" vertex="1">
          <mxGeometry x="1390" y="270" width="120" height="60" as="geometry" />
        </mxCell>
        <mxCell id="nnM_vdUUp27lyh8uVQgL-155" value="" style="rounded=0;whiteSpace=wrap;html=1;hachureGap=4;pointerEvents=0;fontSize=24;fillColor=#dae8fc;strokeColor=#6c8ebf;" parent="1" vertex="1">
          <mxGeometry x="1390" y="330" width="120" height="60" as="geometry" />
        </mxCell>
        <mxCell id="nnM_vdUUp27lyh8uVQgL-156" value="" style="rounded=0;whiteSpace=wrap;html=1;hachureGap=4;pointerEvents=0;fontSize=24;fillColor=#dae8fc;strokeColor=#6c8ebf;" parent="1" vertex="1">
          <mxGeometry x="1390" y="390" width="120" height="60" as="geometry" />
        </mxCell>
        <mxCell id="nnM_vdUUp27lyh8uVQgL-157" value="" style="rounded=0;whiteSpace=wrap;html=1;hachureGap=4;pointerEvents=0;fontSize=24;fillColor=#fff2cc;strokeColor=#d6b656;" parent="1" vertex="1">
          <mxGeometry x="1390" y="530" width="120" height="60" as="geometry" />
        </mxCell>
        <mxCell id="nnM_vdUUp27lyh8uVQgL-158" value="" style="rounded=0;whiteSpace=wrap;html=1;hachureGap=4;pointerEvents=0;fontSize=24;fillColor=#fff2cc;strokeColor=#d6b656;" parent="1" vertex="1">
          <mxGeometry x="1390" y="590" width="120" height="60" as="geometry" />
        </mxCell>
        <mxCell id="nnM_vdUUp27lyh8uVQgL-159" value="" style="rounded=0;whiteSpace=wrap;html=1;hachureGap=4;pointerEvents=0;fontSize=24;fillColor=#fff2cc;strokeColor=#d6b656;" parent="1" vertex="1">
          <mxGeometry x="1390" y="650" width="120" height="60" as="geometry" />
        </mxCell>
        <mxCell id="nnM_vdUUp27lyh8uVQgL-160" value="" style="rounded=0;whiteSpace=wrap;html=1;hachureGap=4;pointerEvents=0;fontSize=24;fillColor=#dae8fc;strokeColor=#6c8ebf;" parent="1" vertex="1">
          <mxGeometry x="1390" y="450" width="120" height="60" as="geometry" />
        </mxCell>
        <mxCell id="nnM_vdUUp27lyh8uVQgL-161" value="" style="rounded=0;whiteSpace=wrap;html=1;hachureGap=4;pointerEvents=0;fontSize=24;fillColor=#d5e8d4;strokeColor=#82b366;" parent="1" vertex="1">
          <mxGeometry x="1390" y="720" width="120" height="60" as="geometry" />
        </mxCell>
        <mxCell id="nnM_vdUUp27lyh8uVQgL-162" value="" style="rounded=0;whiteSpace=wrap;html=1;hachureGap=4;pointerEvents=0;fontSize=24;fillColor=#d5e8d4;strokeColor=#82b366;" parent="1" vertex="1">
          <mxGeometry x="1390" y="780" width="120" height="60" as="geometry" />
        </mxCell>
        <mxCell id="nnM_vdUUp27lyh8uVQgL-163" value="" style="rounded=0;whiteSpace=wrap;html=1;hachureGap=4;pointerEvents=0;fontSize=24;fillColor=#d5e8d4;strokeColor=#82b366;" parent="1" vertex="1">
          <mxGeometry x="1390" y="840" width="120" height="60" as="geometry" />
        </mxCell>
        <mxCell id="nnM_vdUUp27lyh8uVQgL-164" value="" style="rounded=0;whiteSpace=wrap;html=1;hachureGap=4;pointerEvents=0;fontSize=24;fillColor=#d5e8d4;strokeColor=#82b366;" parent="1" vertex="1">
          <mxGeometry x="1390" y="900" width="120" height="60" as="geometry" />
        </mxCell>
        <mxCell id="nnM_vdUUp27lyh8uVQgL-165" value="" style="rounded=0;whiteSpace=wrap;html=1;hachureGap=4;pointerEvents=0;fontSize=24;fillColor=#d5e8d4;strokeColor=#82b366;" parent="1" vertex="1">
          <mxGeometry x="1390" y="960" width="120" height="60" as="geometry" />
        </mxCell>
        <mxCell id="nnM_vdUUp27lyh8uVQgL-166" value="" style="rounded=0;whiteSpace=wrap;html=1;hachureGap=4;pointerEvents=0;fontSize=24;fillColor=#d5e8d4;strokeColor=#82b366;" parent="1" vertex="1">
          <mxGeometry x="1390" y="1020" width="120" height="60" as="geometry" />
        </mxCell>
        <mxCell id="nnM_vdUUp27lyh8uVQgL-167" value="" style="rounded=0;whiteSpace=wrap;html=1;hachureGap=4;pointerEvents=0;fontSize=24;fillColor=#d5e8d4;strokeColor=#82b366;" parent="1" vertex="1">
          <mxGeometry x="1390" y="1080" width="120" height="60" as="geometry" />
        </mxCell>
        <mxCell id="nnM_vdUUp27lyh8uVQgL-168" value="" style="rounded=0;whiteSpace=wrap;html=1;hachureGap=4;pointerEvents=0;fontSize=24;fillColor=#d5e8d4;strokeColor=#82b366;" parent="1" vertex="1">
          <mxGeometry x="1390" y="1140" width="120" height="60" as="geometry" />
        </mxCell>
        <mxCell id="nnM_vdUUp27lyh8uVQgL-169" value="" style="rounded=0;whiteSpace=wrap;html=1;hachureGap=4;pointerEvents=0;fontSize=24;fillColor=#d5e8d4;strokeColor=#82b366;" parent="1" vertex="1">
          <mxGeometry x="1390" y="1200" width="120" height="60" as="geometry" />
        </mxCell>
        <mxCell id="nnM_vdUUp27lyh8uVQgL-170" value="" style="rounded=0;whiteSpace=wrap;html=1;hachureGap=4;pointerEvents=0;fontSize=24;fillColor=#d5e8d4;strokeColor=#82b366;" parent="1" vertex="1">
          <mxGeometry x="1390" y="1260" width="120" height="60" as="geometry" />
        </mxCell>
        <mxCell id="nnM_vdUUp27lyh8uVQgL-171" value="" style="rounded=0;whiteSpace=wrap;html=1;hachureGap=4;pointerEvents=0;fontSize=24;fillColor=#d5e8d4;strokeColor=#82b366;" parent="1" vertex="1">
          <mxGeometry x="1390" y="1320" width="120" height="60" as="geometry" />
        </mxCell>
        <mxCell id="FN0gQhdik-o3xwFLY8bO-1" value="" style="rounded=0;whiteSpace=wrap;html=1;" vertex="1" parent="1">
          <mxGeometry x="290" y="100" width="120" height="60" as="geometry" />
        </mxCell>
        <mxCell id="FN0gQhdik-o3xwFLY8bO-2" value="" style="rounded=0;whiteSpace=wrap;html=1;" vertex="1" parent="1">
          <mxGeometry x="450" y="100" width="120" height="60" as="geometry" />
        </mxCell>
        <mxCell id="FN0gQhdik-o3xwFLY8bO-3" value="" style="rounded=0;whiteSpace=wrap;html=1;" vertex="1" parent="1">
          <mxGeometry x="600" y="100" width="120" height="60" as="geometry" />
        </mxCell>
        <mxCell id="FN0gQhdik-o3xwFLY8bO-4" value="" style="rounded=0;whiteSpace=wrap;html=1;" vertex="1" parent="1">
          <mxGeometry x="760" y="100" width="120" height="60" as="geometry" />
        </mxCell>
        <mxCell id="FN0gQhdik-o3xwFLY8bO-5" value="" style="rounded=0;whiteSpace=wrap;html=1;" vertex="1" parent="1">
          <mxGeometry x="920" y="100" width="120" height="60" as="geometry" />
        </mxCell>
        <mxCell id="FN0gQhdik-o3xwFLY8bO-6" value="" style="rounded=0;whiteSpace=wrap;html=1;" vertex="1" parent="1">
          <mxGeometry x="1080" y="100" width="120" height="60" as="geometry" />
        </mxCell>
        <mxCell id="FN0gQhdik-o3xwFLY8bO-7" value="" style="rounded=0;whiteSpace=wrap;html=1;" vertex="1" parent="1">
          <mxGeometry x="1230" y="100" width="120" height="60" as="geometry" />
        </mxCell>
        <mxCell id="FN0gQhdik-o3xwFLY8bO-8" value="" style="rounded=0;whiteSpace=wrap;html=1;" vertex="1" parent="1">
          <mxGeometry x="1390" y="100" width="120" height="60" as="geometry" />
        </mxCell>
      </root>
    </mxGraphModel>
  </diagram>
</mxfile>
